HIERARCHY
ROOT pelvis
{
  OFFSET 0 100 0
  CHANNELS 6 Xposition Yposition Zposition Zrotation Xrotation Yrotation
  JOINT pelvis_right_femur
  {
    OFFSET -10.78128 -3.44521 -0.5502486
    CHANNELS 3 Zrotation Xrotation Yrotation
    JOINT right_femur_tibia
    {
      OFFSET -0.8047443 -44.0398 -0.1307829
      CHANNELS 3 Zrotation Xrotation Yrotation
      JOINT right_tibia_foot
      {
        OFFSET 3.006224 -47.83518 -5
        CHANNELS 3 Zrotation Xrotation Yrotation
        End Site
        {
          OFFSET 0 -5 15
        }
      }
    }
  }
  JOINT pelvis_left_femur
  {
    OFFSET 10.78128 -3.44521 -0.5502486
    CHANNELS 3 Zrotation Xrotation Yrotation
    JOINT left_femur_tibia
    {
      OFFSET 0.8047443 -44.0398 -0.1307829
      CHANNELS 3 Zrotation Xrotation Yrotation
      JOINT left_tibia_foot
      {
        OFFSET -4.370144 -48.10324 -4.275266
        CHANNELS 3 Zrotation Xrotation Yrotation
        End Site
        {
          OFFSET 0 -5 15
        }
      }
    }
  }
  JOINT pelvis_spine1
  {
    OFFSET 0 6.468898 -3.129235
    CHANNELS 3 Zrotation Xrotation Yrotation
    JOINT spine1
    {
      OFFSET 0 23.15396 4.99043
      CHANNELS 3 Zrotation Xrotation Yrotation
      JOINT spine2
      {
        OFFSET 0 20.79997 -5.064912
        CHANNELS 3 Zrotation Xrotation Yrotation
        JOINT neck
        {
          OFFSET 0 14.38658 9.616178
          CHANNELS 3 Zrotation Xrotation Yrotation
          End Site
          {
            OFFSET 0 20 0
          }
        }
      }
      JOINT right_manubrium
      {
        OFFSET -5.722621 16.35077 3.967754
        CHANNELS 3 Zrotation Xrotation Yrotation
        JOINT right_clavicle
        {
          OFFSET -13.16364 1.694482 -4.693211
          CHANNELS 3 Zrotation Xrotation Yrotation
          JOINT right_humerus
          {
            OFFSET -28.5034 -0.3100689 -2.792744
            CHANNELS 3 Zrotation Xrotation Yrotation
            JOINT right_radius
            {
              OFFSET -25.15693 0.02248979 -1.271978
              CHANNELS 3 Zrotation Xrotation Yrotation
              End Site
              {
                OFFSET -15 0 0
              }
            }
          }
        }
      }
      JOINT left_manubrium
      {
        OFFSET 5.722621 16.35077 3.967754
        CHANNELS 3 Zrotation Xrotation Yrotation
        JOINT left_clavicle
        {
          OFFSET 13.16364 1.694482 -4.693211
          CHANNELS 3 Zrotation Xrotation Yrotation
          JOINT left_humerus
          {
            OFFSET 29.39168 -1.063119 -2.237045
            CHANNELS 3 Zrotation Xrotation Yrotation
            JOINT left_radius
            {
              OFFSET 24.59957 -0.9528479 0.9047498
              CHANNELS 3 Zrotation Xrotation Yrotation
              End Site
              {
                OFFSET 15 -0 -0
              }
            }
          }
        }
      }
    }
  }
}
MOTION
Frames: 21
Frame Time: 0.0416666666667
0 103.5113 0 1.156598 -2.612893 0.07014843 3.318456 -15.30737 7.784342 -0 39.02601 -0 -5.634316 -14.18152 -4.274955 -7.016972 12.11978 -25.33355 -0 7.13896 -0 -2.353151 -23.13559 23.17236 -3.469892 -2.637102 4.151655 1.444201 8.064565 -7.159415 1.024397 23.06088 7.826218 4.8693 -22.17677 8.040584 6.946947 -19.27605 11.43305 85.81615 34.17528 -21.08225 -0 0 17.46996 -7.372308 7.338782 3.864954 5.501048 -19.02955 -3.181841 -102.8299 41.40989 30.75783 0 0 -19.38578 -12.72034 16.94867 28.98699
0.2494457 103.361 1.04675 0.8907552 -2.16609 0.09101472 3.89442 -16.63442 8.139617 -0 39.11856 -0 -5.349948 -13.87455 -4.067023 -6.911967 12.01848 -25.54343 -0 7.123036 -0 -2.407637 -23.43568 23.23455 -3.284916 -2.461555 4.221289 1.409685 7.947057 -7.06824 1.139984 22.76452 7.928214 5.011793 -22.37567 8.251904 7.148223 -19.14959 11.39961 85.37102 34.34836 -20.67934 -0 0 17.88102 -6.856327 7.42537 3.548231 5.891234 -18.98314 -2.796813 -102.774 40.76877 30.66736 0 0 -19.01741 -11.67814 17.31572 27.81103
0.408755 102.7995 3.063709 0.07489993 -0.1008354 0.3216633 4.462331 -24.70645 6.539369 -0 30.1349 -0 -6.175169 -10.22916 -3.947465 -5.886485 13.47419 -22.74351 -0 5.390495 -0 -3.012807 -25.01303 20.02624 -2.97384 -1.350789 3.438009 1.963869 7.557746 -7.817328 1.166037 21.90439 8.300903 5.032443 -23.65797 8.708552 6.498319 -18.12221 11.07705 86.30587 35.16061 -21.78591 -0 0 15.48194 -8.387581 8.879527 4.581669 6.549775 -20.45028 -2.516299 -97.27653 38.7787 24.58398 0 0 -22.69683 -7.892984 16.53305 23.92156
0.5172489 102.0783 5.755263 -0.543583 1.235086 0.7317778 5.090256 -29.09595 5.787692 -0 25.68913 -0 -6.525455 -7.832738 -3.73568 -5.284676 14.4987 -21.21249 -0 5.646438 -0 -4.027162 -25.54465 17.8732 -2.554986 -0.7734308 2.960024 2.231197 7.224938 -8.15846 1.195422 21.36562 8.526492 5.132117 -24.36569 8.937714 6.275652 -17.41089 10.87407 86.74548 35.59517 -22.31312 -0 0 14.18793 -8.940829 9.609587 5.027052 6.891047 -21.01849 -2.320184 -94.94646 37.55484 21.9383 0 0 -24.32439 -6.014706 15.97897 22.09352
0.5882871 101.3269 9.110548 -1.137823 2.379811 1.262229 5.717751 -32.09157 5.172007 -0 22.31988 -0 -6.824498 -5.8393 -3.505975 -4.762299 15.38934 -19.86405 -0 7.057002 -0 -5.177178 -25.32859 15.79848 -2.048845 -0.41326 2.506635 2.474747 6.91471 -8.424632 1.193672 20.9852 8.656304 5.160973 -24.95963 9.070851 6.126884 -16.75604 10.71291 87.14256 35.91615 -22.73503 -0 0 13.01938 -9.359466 10.20104 5.454327 6.960524 -21.2453 -2.23487 -93.45507 36.51495 20.26026 0 0 -25.19184 -4.682508 15.48252 20.90207
0.6366213 100.6364 13.0998 -1.722301 3.314532 1.858458 6.365975 -33.77115 4.688585 -0 19.84464 -0 -7.074601 -4.391007 -3.277824 -4.279344 16.01751 -18.6479 -0 9.635203 -0 -6.325668 -24.29982 13.8314 -1.451119 -0.2347448 2.095956 2.702607 6.64268 -8.616888 1.167906 20.75586 8.678955 5.075836 -25.4623 9.139811 6.009614 -16.15482 10.60133 87.4831 36.10502 -23.01272 -0 0 11.98755 -9.688447 10.70493 5.874909 6.777013 -21.16939 -2.22543 -92.5601 35.51767 19.31088 0 0 -25.31621 -3.618312 15.11522 20.0138
0.6692002 100.0749 17.68964 -2.276657 3.93957 2.452239 6.987637 -34.15552 4.272224 -0 18.05708 -0 -7.300834 -3.590721 -3.127775 -3.79449 16.32224 -17.45654 -0 13.5213 -0 -7.452617 -22.41543 11.94471 -0.7754562 -0.1897009 1.733155 2.905864 6.426324 -8.732253 1.128236 20.6913 8.571808 4.836239 -25.8122 9.140773 5.868011 -15.56097 10.54541 87.80316 36.10233 -23.16169 -0 0 11.01443 -10.04333 11.18857 6.305097 6.363197 -20.87098 -2.279465 -91.94883 34.47083 18.72408 0 0 -24.86421 -2.670499 14.88714 19.2169
0.6860776 99.70808 22.82382 -2.745709 4.103749 2.954511 7.526347 -33.1612 3.892677 -0 16.96515 -0 -7.517369 -3.521461 -3.135444 -3.30336 16.19366 -16.2342 -0 18.92743 -0 -8.551548 -19.69061 10.21018 -0.06954891 -0.2204359 1.44862 3.060934 6.306022 -8.752213 1.081149 20.79935 8.328861 4.448428 -25.89431 9.041763 5.706544 -14.93817 10.56916 88.08549 35.88591 -23.17011 -0 0 10.05454 -10.50977 11.69513 6.735166 5.768439 -20.44343 -2.380358 -91.39606 33.34146 18.20484 0 0 -24.00668 -1.796469 14.77249 18.39578
0.6846101 99.6137 28.41534 -3.040749 3.660344 3.260908 7.907707 -30.69851 3.539179 -0 16.62731 -0 -7.72336 -4.17566 -3.347597 -2.848063 15.44559 -14.94962 -0 26.05485 -0 -9.584975 -16.25795 8.790534 0.570554 -0.2483777 1.303459 3.143197 6.343131 -8.652248 1.029989 21.07153 7.969641 3.978679 -25.5767 8.79546 5.587581 -14.27359 10.70263 88.256 35.50198 -22.99684 -0 0 9.086591 -11.14892 12.2345 7.15558 5.070594 -19.99496 -2.514062 -90.75226 32.12739 17.52724 0 0 -22.9186 -1.008111 14.67292 17.48919
0.6679785 99.87801 34.33663 -3.048937 2.542853 3.277096 8.027779 -26.74368 3.211668 -0 16.98009 -0 -7.878684 -5.416004 -3.717525 -2.525179 13.76352 -13.60882 -0 34.88454 -0 -10.45423 -12.44843 7.9221 0.9978627 -0.1793304 1.40668 3.130113 6.599675 -8.399289 0.9783988 21.48173 7.5459 3.556717 -24.77236 8.366648 5.604541 -13.6187 10.96056 88.18438 35.06988 -22.55857 -0 0 8.164099 -11.97654 12.75307 7.564104 4.374711 -19.62285 -2.671552 -90.02391 30.8608 16.65693 0 0 -21.73903 -0.3550047 14.42315 16.5096
0.6516079 100.5572 40.41415 -2.665977 0.858755 2.968289 7.757975 -21.45043 2.901862 -0 17.62211 -0 -7.890021 -6.956931 -4.0617 -2.453187 10.72491 -12.26123 -0 44.81814 -0 -10.99827 -8.839604 7.824835 1.041231 0.0666177 1.904248 3.001955 7.093635 -7.956496 0.9356165 21.98873 7.133169 3.334845 -23.52681 7.769212 5.811163 -13.12055 11.3162 87.72544 34.75039 -21.73993 -0 0 7.458723 -12.96544 13.13973 7.973041 3.804233 -19.38516 -2.83654 -89.39878 29.61055 15.83294 0 0 -20.56811 0.1104829 13.86391 15.54818
0.6594453 101.6061 46.44766 -1.858466 -1.051457 2.40682 7.012141 -15.26799 2.585666 -0 17.76503 -0 -7.648427 -8.407335 -4.100984 -2.678336 5.993244 -10.97939 -0 54.321 -0 -11.02794 -6.156597 8.564009 0.5847155 0.4969932 2.900609 2.745461 7.751883 -7.311374 0.9163097 22.53374 6.800966 3.394802 -22.08143 7.090912 6.139134 -13.00307 11.69417 86.8004 34.68263 -20.43868 -0 0 7.244401 -14.08535 13.29949 8.423421 3.473527 -19.28822 -2.964166 -89.13816 28.46212 15.48961 0 0 -19.52049 0.3906294 12.97244 14.72862
0.7091744 102.8227 52.269 -0.7431944 -2.699926 1.753946 5.881161 -8.933437 2.243331 -0 16.61495 -0 -7.136591 -9.446188 -3.64404 -3.04711 -0.3223947 -9.787052 -0 61.02395 -0 -10.42596 -4.932025 9.974489 -0.3029006 1.004324 4.315442 2.362311 8.414322 -6.52048 0.9299781 23.03567 6.570909 3.655544 -20.80496 6.474758 6.3797 -13.46195 12.0032 85.4714 34.89661 -18.62709 -0 0 7.783697 -15.35817 13.25881 8.995037 3.43573 -19.29703 -2.987728 -89.35869 27.46262 15.96253 0 0 -18.76298 0.5720834 11.95513 14.12215
0.8003902 103.8783 57.80634 0.3714539 -3.728967 1.154143 4.722959 -3.206943 1.905929 -0 14.07481 -0 -6.498867 -10.10244 -2.805185 -3.157095 -7.454349 -8.565103 -0 62.69769 -0 -9.303365 -5.094929 11.76585 -1.288959 1.426721 5.804069 1.878564 8.924936 -5.717514 0.9669448 23.39801 6.402282 3.896363 -19.95683 6.040816 6.296463 -14.51992 12.19563 83.91208 35.22105 -16.36041 -0 0 9.185433 -16.8514 13.1652 9.778116 3.639218 -19.34793 -2.879274 -89.90346 26.58243 17.1747 0 0 -18.38989 0.7544437 11.13865 13.70485
0.9249095 104.44 63.09515 1.089612 -4.155285 0.6458496 4.012163 1.533222 1.682157 -0 10.99493 -0 -5.901329 -10.85225 -1.962557 -2.530522 -14.30825 -7.081299 -0 58.59752 -0 -8.032795 -5.946841 13.70116 -1.918235 1.689981 6.927371 1.349354 9.233336 -5.037399 0.9990839 23.53457 6.235623 3.921774 -19.49491 5.803654 5.798079 -15.99839 12.29611 82.26322 35.25828 -13.70718 -0 0 11.392 -18.57073 13.1018 10.80749 3.949946 -19.33418 -2.701035 -90.50284 25.75148 18.70216 0 0 -18.18272 0.9207632 10.64783 13.42545
1.094044 104.2998 68.24981 1.182693 -4.247483 0.1770798 3.967509 5.456373 1.683298 -0 8.477747 -0 -5.307589 -12.2611 -1.403892 -0.9889672 -20.11815 -5.228818 -0 49.8717 -0 -7.021369 -6.676788 15.5974 -1.936889 1.831309 7.48612 0.8521802 9.378595 -4.525709 0.9981463 23.39969 6.054518 3.699928 -19.1967 5.690145 4.982409 -17.66456 12.35465 80.57769 34.56392 -10.74949 -0 0 14.27618 -20.37659 12.93802 12.02834 4.229546 -19.10352 -2.55244 -91.05809 24.92453 20.23119 0 0 -17.65172 0.9202723 10.22075 13.31911
1.352208 103.4373 73.45219 0.766446 -4.173002 -0.3294787 4.324076 9.010605 1.88817 -0 7.077098 -0 -4.510601 -14.41949 -1.0672 1.089004 -24.67377 -3.247216 -0 38.80104 -0 -6.431546 -6.881231 17.21306 -1.486126 1.856993 7.647875 0.4610097 9.397832 -4.151266 0.9543486 23.00916 5.897872 3.343929 -18.94923 5.63552 4.035938 -19.34616 12.37022 78.95986 33.0347 -7.739092 -0 0 17.59495 -22.06761 12.47882 13.33008 4.387529 -18.54632 -2.467564 -91.64603 24.11581 21.7916 0 0 -16.48578 0.623159 9.463789 13.4916
1.763157 102.0218 78.93652 0.236199 -3.898438 -0.9148165 4.492813 12.47989 2.153172 -0 6.8698 -0 -3.377973 -16.6511 -0.6795941 2.87347 -27.96329 -1.68808 -0 27.98616 -0 -6.096039 -6.633129 18.3037 -1.0093 1.659595 7.754672 0.2053673 9.309614 -3.882684 0.8929644 22.45566 5.814934 3.019046 -18.81791 5.627683 3.158033 -20.8607 12.28043 77.63219 31.16139 -5.149954 -0 0 20.8098 -23.52945 11.73587 14.58208 4.381334 -17.71661 -2.403778 -92.27612 23.39504 23.47253 0 0 -14.85696 0.08883712 8.280191 13.94574
2.380086 100.3764 84.91923 0.04055918 -3.420146 -1.549361 3.945779 15.73405 2.39406 -0 8.141359 -0 -2.030987 -17.68395 -0.1285384 3.464107 -29.79994 -1.166788 -0 19.85265 -0 -5.662973 -6.271019 18.81124 -0.9837933 1.112253 8.046116 0.03873419 9.169419 -3.710597 0.8798214 21.90247 5.8132 2.864641 -18.86771 5.681966 2.543183 -21.93232 12.03355 76.82268 29.78652 -3.472728 -0 0 23.13649 -24.75605 10.9862 15.62086 4.208602 -16.83689 -2.31834 -92.78035 22.8467 25.09785 0 0 -13.21633 -0.4385289 7.021237 14.47927
3.211251 98.9026 91.49474 0.4093428 -2.968482 -2.135637 2.572046 18.2724 2.690062 -0 11.78708 -0 -0.8321379 -16.30101 0.3210336 2.431274 -29.844 -1.957835 -0 15.92421 -0 -4.898434 -6.174147 18.91973 -1.614015 0.2360947 8.491258 -0.144082 9.092212 -3.620184 0.9803979 21.51905 5.852516 2.924718 -19.02788 5.809344 2.330559 -22.30601 11.67029 76.70485 29.46401 -2.968383 -0 0 23.97051 -25.74188 10.57363 16.25849 3.908837 -16.16261 -2.229282 -92.95363 22.52917 26.29299 0 0 -11.89506 -0.7221793 6.223453 14.83563
4.199765 97.96869 98.56995 1.185714 -2.911347 -2.513846 0.8018368 19.46048 3.150804 -0 18.78077 -0 -0.114589 -12.21533 0.2384026 0.2078722 -27.94822 -3.666627 -0 16.02892 -0 -3.911799 -6.574366 18.88875 -2.672053 -0.7195399 8.82466 -0.4225873 9.202182 -3.592013 1.189496 21.38054 5.886947 3.109681 -19.15517 5.998399 2.516861 -21.98068 11.32711 77.39398 29.96291 -3.571149 -0 0 23.33467 -26.38864 10.63109 16.3753 3.54922 -15.82716 -2.212838 -92.75123 22.46923 26.80945 0 0 -10.94664 -0.740244 6.129423 14.98166
